<svg xmlns="http://www.w3.org/2000/svg" width="1591" height="767" viewBox="0 0 1591 767" fill="none"><g clip-path="url(#clip0)"><g clip-path="url(#clip1)"><path d="M163.065 552.925L134.616 318.908C131.939 295.415 139.895 273.396 154.448 257.337L141.245 241.066C94.3892 241.066 57.9759 281.864 63.2809 328.419L88.8678 552.949C95.7124 613.015 146.541 658.38 206.996 658.38H281.198L281.193 658.356C220.74 658.356 169.911 612.99 163.065 552.925Z" fill="#9D2BA0"></path><path d="M479.895 682.15H206.996C134.402 682.15 73.4621 627.759 65.2431 555.633L39.6562 331.103C36.3605 302.19 45.5842 273.155 64.9613 251.444C84.3384 229.732 112.144 217.28 141.244 217.28C154.377 217.28 165.023 227.926 165.023 241.059C165.023 254.191 154.377 264.837 141.244 264.837C125.449 264.837 110.958 271.326 100.442 283.111C89.9252 294.894 85.1184 310.026 86.9065 325.718L112.493 550.248C117.972 598.333 158.6 634.593 206.995 634.593H479.894C528.29 634.593 568.916 598.333 574.396 550.248L599.983 325.718C601.771 310.026 596.963 294.893 586.446 283.11C575.929 271.326 561.439 264.837 545.646 264.837C532.513 264.837 521.867 254.191 521.867 241.059C521.867 227.926 532.513 217.28 545.646 217.28C574.747 217.28 602.55 229.732 621.927 251.443C641.304 273.154 650.529 302.188 647.233 331.103L621.646 555.633C613.431 627.759 552.49 682.15 479.895 682.15ZM256.747 411.075V207.769C256.747 159.912 295.682 120.977 343.539 120.977C391.395 120.977 430.33 159.912 430.33 207.769V217.28H328.083C314.95 217.28 304.304 227.926 304.304 241.059C304.304 254.191 314.95 264.837 328.083 264.837H454.109C467.242 264.837 477.887 254.191 477.887 241.059V207.769C477.887 133.688 417.619 73.4199 343.539 73.4199C269.458 73.4199 209.19 133.688 209.19 207.769V411.075C209.19 424.208 219.836 434.854 232.969 434.854C246.101 434.854 256.747 424.208 256.747 411.075Z" fill="white"></path><path d="M360.183 388.492C376.599 388.492 389.907 401.8 389.907 418.215C389.907 434.631 376.599 447.939 360.183 447.939C343.768 447.939 330.46 434.631 330.46 418.215C330.46 401.8 343.768 388.492 360.183 388.492ZM460.053 552.564C460.053 568.98 473.361 582.287 489.776 582.287C506.192 582.287 519.5 568.98 519.5 552.564C519.5 536.149 506.192 522.841 489.776 522.841C473.361 522.841 460.053 536.149 460.053 552.564ZM372.586 574.971L512.88 428.733C521.97 419.256 521.659 404.203 512.182 395.112C502.705 386.02 487.651 386.333 478.561 395.81L338.268 542.048C329.177 551.525 329.489 566.578 338.966 575.669C343.575 580.091 349.503 582.287 355.424 582.287C361.675 582.287 367.919 579.837 372.586 574.971Z" fill="#9D2BA0"></path></g><path d="M748.948 240.352C759.426 240.352 768.636 242.634 776.579 247.196C784.521 251.759 790.69 258.181 795.084 266.462C799.477 274.574 801.674 284.037 801.674 294.853V367.351C801.674 379.35 798.97 389.743 793.563 398.531C788.155 407.319 780.635 413.656 771.002 417.543C770.326 418.05 769.988 418.557 769.988 419.064V440.104C769.988 440.949 769.65 441.624 768.974 442.131C768.467 442.807 767.791 443.145 766.946 443.145H730.95C730.105 443.145 729.345 442.807 728.669 442.131C728.162 441.624 727.908 440.949 727.908 440.104V419.064C727.908 418.557 727.57 418.05 726.894 417.543C717.431 413.656 709.995 407.319 704.587 398.531C699.348 389.743 696.729 379.35 696.729 367.351V294.853C696.729 284.037 698.841 274.574 703.066 266.462C707.46 258.181 713.628 251.759 721.571 247.196C729.514 242.634 738.639 240.352 748.948 240.352ZM738.808 371.914C738.808 375.97 739.738 379.35 741.597 382.054C743.456 384.589 745.906 385.856 748.948 385.856C752.159 385.856 754.694 384.589 756.553 382.054C758.581 379.35 759.595 375.97 759.595 371.914V290.29C759.595 286.234 758.581 282.939 756.553 280.404C754.694 277.7 752.159 276.348 748.948 276.348C745.906 276.348 743.456 277.7 741.597 280.404C739.738 282.939 738.808 286.234 738.808 290.29V371.914ZM860.179 421.852C849.702 421.852 840.492 419.655 832.549 415.261C824.606 410.699 818.438 404.361 814.044 396.249C809.65 388.138 807.453 378.759 807.453 368.112V245.422C807.453 244.577 807.707 243.901 808.214 243.394C808.89 242.718 809.65 242.38 810.495 242.38H846.491C847.336 242.38 848.012 242.718 848.519 243.394C849.195 243.901 849.533 244.577 849.533 245.422V372.168C849.533 376.224 850.462 379.519 852.321 382.054C854.349 384.589 856.969 385.856 860.179 385.856C863.39 385.856 865.925 384.589 867.784 382.054C869.812 379.519 870.826 376.224 870.826 372.168V245.422C870.826 244.577 871.08 243.901 871.587 243.394C872.263 242.718 873.023 242.38 873.868 242.38H909.864C910.709 242.38 911.385 242.718 911.892 243.394C912.568 243.901 912.906 244.577 912.906 245.422V368.112C912.906 378.759 910.709 388.138 906.315 396.249C901.921 404.361 895.753 410.699 887.81 415.261C879.867 419.655 870.657 421.852 860.179 421.852ZM924.178 419.824C923.333 419.824 922.573 419.571 921.897 419.064C921.39 418.388 921.136 417.627 921.136 416.782V245.422C921.136 244.577 921.39 243.901 921.897 243.394C922.573 242.718 923.333 242.38 924.178 242.38H960.174C961.019 242.38 961.695 242.718 962.202 243.394C962.878 243.901 963.216 244.577 963.216 245.422V416.782C963.216 417.627 962.878 418.388 962.202 419.064C961.695 419.571 961.019 419.824 960.174 419.824H924.178ZM1077.63 242.38C1078.47 242.38 1079.15 242.718 1079.66 243.394C1080.33 243.901 1080.67 244.577 1080.67 245.422V275.334C1080.67 276.179 1080.33 276.939 1079.66 277.615C1079.15 278.122 1078.47 278.376 1077.63 278.376H1046.2C1045.35 278.376 1044.93 278.798 1044.93 279.643V416.782C1044.93 417.627 1044.59 418.388 1043.92 419.064C1043.41 419.571 1042.73 419.824 1041.89 419.824H1005.89C1005.05 419.824 1004.29 419.571 1003.61 419.064C1003.1 418.388 1002.85 417.627 1002.85 416.782V279.643C1002.85 278.798 1002.43 278.376 1001.58 278.376H971.417C970.572 278.376 969.811 278.122 969.135 277.615C968.628 276.939 968.375 276.179 968.375 275.334V245.422C968.375 244.577 968.628 243.901 969.135 243.394C969.811 242.718 970.572 242.38 971.417 242.38H1077.63ZM1146.8 419.824C1144.77 419.824 1143.67 418.895 1143.51 417.036L1140.21 394.982C1140.21 394.137 1139.7 393.715 1138.69 393.715H1111.31C1110.3 393.715 1109.79 394.137 1109.79 394.982L1106.75 417.036C1106.58 418.895 1105.48 419.824 1103.45 419.824H1067.46C1065.26 419.824 1064.42 418.726 1064.92 416.529L1101.68 245.168C1102.02 243.31 1103.12 242.38 1104.98 242.38H1146.29C1148.15 242.38 1149.25 243.31 1149.59 245.168L1186.09 416.529L1186.35 417.543C1186.35 419.064 1185.42 419.824 1183.56 419.824H1146.8ZM1115.37 360C1115.37 360.845 1115.71 361.268 1116.38 361.268H1133.37C1134.04 361.268 1134.38 360.845 1134.38 360L1125.25 302.204C1125.09 301.528 1124.83 301.19 1124.49 301.19C1124.16 301.19 1123.9 301.528 1123.73 302.204L1115.37 360ZM1262.85 245.422C1262.85 244.577 1263.11 243.901 1263.61 243.394C1264.29 242.718 1265.05 242.38 1265.89 242.38H1301.38C1302.23 242.38 1302.9 242.718 1303.41 243.394C1304.09 243.901 1304.43 244.577 1304.43 245.422V416.782C1304.43 417.627 1304.09 418.388 1303.41 419.064C1302.9 419.571 1302.23 419.824 1301.38 419.824H1261.08C1259.22 419.824 1258.04 418.979 1257.53 417.289L1232.43 329.074C1232.26 328.567 1231.93 328.314 1231.42 328.314C1231.08 328.145 1230.91 328.398 1230.91 329.074L1231.42 416.782C1231.42 417.627 1231.08 418.388 1230.41 419.064C1229.9 419.571 1229.22 419.824 1228.38 419.824H1192.89C1192.04 419.824 1191.28 419.571 1190.61 419.064C1190.1 418.388 1189.85 417.627 1189.85 416.782V245.422C1189.85 244.577 1190.1 243.901 1190.61 243.394C1191.28 242.718 1192.04 242.38 1192.89 242.38H1232.69C1234.55 242.38 1235.73 243.225 1236.24 244.915L1261.59 333.637C1261.75 334.144 1262.01 334.398 1262.35 334.398C1262.85 334.398 1263.11 334.06 1263.11 333.384L1262.85 245.422ZM1316.46 419.824C1315.61 419.824 1314.85 419.571 1314.17 419.064C1313.67 418.388 1313.41 417.627 1313.41 416.782V245.422C1313.41 244.577 1313.67 243.901 1314.17 243.394C1314.85 242.718 1315.61 242.38 1316.46 242.38H1364.87C1381.1 242.38 1394.11 246.943 1403.91 256.069C1413.71 265.194 1418.61 277.277 1418.61 292.318V369.886C1418.61 384.927 1413.71 397.01 1403.91 406.136C1394.11 415.261 1381.1 419.824 1364.87 419.824H1316.46ZM1355.49 382.561C1355.49 383.406 1355.92 383.828 1356.76 383.828L1363.86 383.575C1367.41 383.406 1370.37 381.885 1372.73 379.012C1375.1 375.97 1376.36 371.999 1376.53 367.098V295.106C1376.53 290.037 1375.35 285.981 1372.99 282.939C1370.62 279.897 1367.49 278.376 1363.61 278.376H1356.76C1355.92 278.376 1355.49 278.798 1355.49 279.643V382.561ZM1498.44 419.824C1496.41 419.824 1495.32 418.895 1495.15 417.036L1491.85 394.982C1491.85 394.137 1491.34 393.715 1490.33 393.715H1462.95C1461.94 393.715 1461.43 394.137 1461.43 394.982L1458.39 417.036C1458.22 418.895 1457.12 419.824 1455.09 419.824H1419.1C1416.9 419.824 1416.06 418.726 1416.56 416.529L1453.32 245.168C1453.66 243.31 1454.76 242.38 1456.62 242.38H1497.93C1499.79 242.38 1500.89 243.31 1501.23 245.168L1537.73 416.529L1537.99 417.543C1537.99 419.064 1537.06 419.824 1535.2 419.824H1498.44ZM1467.01 360C1467.01 360.845 1467.35 361.268 1468.02 361.268H1485.01C1485.68 361.268 1486.02 360.845 1486.02 360L1476.89 302.204C1476.73 301.528 1476.47 301.19 1476.13 301.19C1475.8 301.19 1475.54 301.528 1475.37 302.204L1467.01 360ZM750.469 639.852C734.077 639.852 720.979 635.12 711.178 625.657C701.545 616.193 696.729 603.434 696.729 587.379V510.825C696.729 494.939 701.545 482.265 711.178 472.801C720.979 463.168 734.077 458.352 750.469 458.352C766.692 458.352 779.705 463.168 789.507 472.801C799.477 482.265 804.463 494.939 804.463 510.825V587.379C804.463 603.434 799.477 616.193 789.507 625.657C779.705 635.12 766.692 639.852 750.469 639.852ZM750.469 603.856C754.187 603.856 757.06 602.589 759.088 600.054C761.285 597.35 762.383 593.717 762.383 589.154V509.05C762.383 504.488 761.285 500.939 759.088 498.404C757.06 495.7 754.187 494.348 750.469 494.348C746.751 494.348 743.878 495.7 741.85 498.404C739.822 500.939 738.808 504.488 738.808 509.05V589.154C738.808 593.717 739.822 597.35 741.85 600.054C743.878 602.589 746.751 603.856 750.469 603.856ZM884.19 463.422C884.19 462.577 884.443 461.901 884.95 461.394C885.626 460.718 886.387 460.38 887.232 460.38H922.721C923.566 460.38 924.241 460.718 924.748 461.394C925.424 461.901 925.762 462.577 925.762 463.422V634.782C925.762 635.627 925.424 636.388 924.748 637.064C924.241 637.571 923.566 637.824 922.721 637.824H882.415C880.556 637.824 879.373 636.979 878.866 635.289L853.771 547.074C853.602 546.567 853.264 546.314 852.757 546.314C852.419 546.145 852.25 546.398 852.25 547.074L852.757 634.782C852.757 635.627 852.419 636.388 851.743 637.064C851.236 637.571 850.56 637.824 849.715 637.824H814.226C813.381 637.824 812.621 637.571 811.945 637.064C811.438 636.388 811.184 635.627 811.184 634.782V463.422C811.184 462.577 811.438 461.901 811.945 461.394C812.621 460.718 813.381 460.38 814.226 460.38H854.024C855.883 460.38 857.066 461.225 857.573 462.915L882.922 551.637C883.091 552.144 883.345 552.398 883.683 552.398C884.19 552.398 884.443 552.06 884.443 551.384L884.19 463.422ZM937.793 637.824C936.948 637.824 936.188 637.571 935.512 637.064C935.005 636.388 934.751 635.627 934.751 634.782V463.422C934.751 462.577 935.005 461.901 935.512 461.394C936.188 460.718 936.948 460.38 937.793 460.38H973.789C974.634 460.38 975.31 460.718 975.817 461.394C976.493 461.901 976.831 462.577 976.831 463.422V600.561C976.831 601.406 977.254 601.828 978.099 601.828H1029.81C1030.66 601.828 1031.33 602.166 1031.84 602.842C1032.51 603.349 1032.85 604.025 1032.85 604.87V634.782C1032.85 635.627 1032.51 636.388 1031.84 637.064C1031.33 637.571 1030.66 637.824 1029.81 637.824H937.793ZM1039.58 637.824C1038.73 637.824 1037.97 637.571 1037.29 637.064C1036.79 636.388 1036.53 635.627 1036.53 634.782V463.422C1036.53 462.577 1036.79 461.901 1037.29 461.394C1037.97 460.718 1038.73 460.38 1039.58 460.38H1075.57C1076.42 460.38 1077.09 460.718 1077.6 461.394C1078.28 461.901 1078.61 462.577 1078.61 463.422V634.782C1078.61 635.627 1078.28 636.388 1077.6 637.064C1077.09 637.571 1076.42 637.824 1075.57 637.824H1039.58ZM1160.33 463.422C1160.33 462.577 1160.58 461.901 1161.09 461.394C1161.76 460.718 1162.52 460.38 1163.37 460.38H1198.86C1199.7 460.38 1200.38 460.718 1200.89 461.394C1201.56 461.901 1201.9 462.577 1201.9 463.422V634.782C1201.9 635.627 1201.56 636.388 1200.89 637.064C1200.38 637.571 1199.7 637.824 1198.86 637.824H1158.55C1156.69 637.824 1155.51 636.979 1155 635.289L1129.91 547.074C1129.74 546.567 1129.4 546.314 1128.89 546.314C1128.56 546.145 1128.39 546.398 1128.39 547.074L1128.89 634.782C1128.89 635.627 1128.56 636.388 1127.88 637.064C1127.37 637.571 1126.7 637.824 1125.85 637.824H1090.36C1089.52 637.824 1088.76 637.571 1088.08 637.064C1087.58 636.388 1087.32 635.627 1087.32 634.782V463.422C1087.32 462.577 1087.58 461.901 1088.08 461.394C1088.76 460.718 1089.52 460.38 1090.36 460.38H1130.16C1132.02 460.38 1133.2 461.225 1133.71 462.915L1159.06 551.637C1159.23 552.144 1159.48 552.398 1159.82 552.398C1160.33 552.398 1160.58 552.06 1160.58 551.384L1160.33 463.422ZM1308.23 493.334C1308.23 494.179 1307.89 494.939 1307.22 495.615C1306.71 496.122 1306.03 496.376 1305.19 496.376H1254.24C1253.39 496.376 1252.97 496.798 1252.97 497.643V529.583C1252.97 530.428 1253.39 530.851 1254.24 530.851H1282.12C1282.97 530.851 1283.64 531.189 1284.15 531.865C1284.82 532.372 1285.16 533.048 1285.16 533.893V564.058C1285.16 564.903 1284.82 565.664 1284.15 566.34C1283.64 566.847 1282.97 567.1 1282.12 567.1H1254.24C1253.39 567.1 1252.97 567.523 1252.97 568.368V600.561C1252.97 601.406 1253.39 601.828 1254.24 601.828H1305.19C1306.03 601.828 1306.71 602.166 1307.22 602.842C1307.89 603.349 1308.23 604.025 1308.23 604.87V634.782C1308.23 635.627 1307.89 636.388 1307.22 637.064C1306.71 637.571 1306.03 637.824 1305.19 637.824H1213.93C1213.09 637.824 1212.33 637.571 1211.65 637.064C1211.14 636.388 1210.89 635.627 1210.89 634.782V463.422C1210.89 462.577 1211.14 461.901 1211.65 461.394C1212.33 460.718 1213.09 460.38 1213.93 460.38H1305.19C1306.03 460.38 1306.71 460.718 1307.22 461.394C1307.89 461.901 1308.23 462.577 1308.23 463.422V493.334Z" fill="white"></path></g><defs><clipPath id="clip0"><rect width="1591" height="767" fill="white"></rect></clipPath><clipPath id="clip1"><rect width="608.892" height="608.892" fill="white" transform="translate(39 73.3477)"></rect></clipPath></defs></svg>